<?xml version="1.0" standalone="no"?>
<!DOCTYPE svg PUBLIC "-//W3C//DTD SVG 20010904//EN"
 "http://www.w3.org/TR/2001/REC-SVG-20010904/DTD/svg10.dtd">
<svg version="1.0" xmlns="http://www.w3.org/2000/svg"
 width="512.000000pt" height="512.000000pt" viewBox="0 0 512.000000 512.000000"
 preserveAspectRatio="xMidYMid meet">
<metadata>
Created by potrace 1.14, written by Peter Selinger 2001-2017
</metadata>
<g transform="translate(0.000000,512.000000) scale(0.100000,-0.100000)"
fill="#000000" stroke="none">
<path d="M734 4865 c-7 -18 4 -2913 11 -3025 18 -275 136 -619 289 -839 28
-40 56 -81 61 -89 25 -39 67 -85 170 -186 134 -132 275 -228 504 -343 154 -77
202 -97 441 -186 102 -37 293 -87 335 -87 74 0 449 117 610 190 213 97 395
193 403 212 2 4 9 8 15 9 14 0 126 78 194 134 62 51 219 230 284 323 65 94
189 352 222 462 83 278 82 261 82 1955 l0 1480 -1808 2 c-1533 2 -1809 0
-1813 -12z m1458 -142 c17 -15 18 -15 18 0 0 14 10 17 49 17 44 0 53 -4 76
-32 19 -23 23 -26 15 -9 -10 19 -9 25 1 32 17 11 18 11 56 0 18 -5 35 -6 38
-2 2 5 23 8 45 8 35 0 41 -3 47 -26 l7 -26 6 25 c8 35 56 41 69 8 10 -23 10
-23 10 -1 1 21 5 22 88 21 56 0 91 -4 95 -11 6 -9 8 -9 8 1 0 15 86 17 95 2 5
-7 11 -8 18 -1 7 5 77 10 156 10 124 1 142 -1 137 -15 -5 -13 -3 -13 16 1 17
11 51 15 145 15 78 0 123 -4 123 -10 0 -7 6 -7 20 0 12 7 137 10 355 9 l335
-1 0 -119 c0 -86 -3 -119 -12 -119 -9 0 -9 -3 0 -12 14 -14 16 -215 2 -238 -8
-13 -20 -12 -100 4 -67 13 -94 15 -104 7 -15 -13 -123 -51 -144 -51 -7 0 -35
23 -61 50 l-46 51 -43 -15 c-39 -14 -47 -14 -106 4 l-64 20 -108 -39 -107 -40
-56 23 c-33 13 -56 29 -55 37 1 11 -9 13 -36 11 -45 -5 -135 31 -124 49 4 7 0
9 -13 5 -12 -4 -25 -1 -33 9 -7 8 -19 15 -26 15 -19 0 -18 10 4 27 15 12 14
12 -10 2 -32 -14 -58 -6 -58 16 0 26 -55 76 -68 63 -9 -9 -16 -7 -29 4 -21 19
-91 28 -97 13 -2 -6 -10 -6 -25 3 -11 6 -32 12 -46 12 -14 0 -25 5 -25 11 0 5
-4 7 -10 4 -17 -11 -11 -25 11 -25 24 0 59 -17 59 -29 0 -10 -65 -38 -103 -45
-13 -2 -30 -1 -36 4 -18 10 2 46 30 55 12 4 17 10 12 14 -6 3 -13 13 -16 21
-4 10 -6 9 -6 -6 -1 -26 -26 -49 -41 -39 -6 4 -11 1 -9 -6 7 -57 -23 -51 -57
11 -15 28 -29 49 -31 47 -2 -2 8 -25 23 -50 22 -41 24 -48 10 -53 -9 -3 -24 0
-33 7 -12 10 -15 10 -9 1 11 -18 -22 -27 -55 -15 -22 9 -26 8 -22 -3 9 -25
-28 -27 -79 -6 -36 15 -46 17 -37 6 9 -12 9 -18 0 -27 -13 -13 -93 -16 -131
-4 -21 6 -20 5 5 -9 27 -16 28 -18 10 -25 -11 -4 -54 -8 -95 -8 -58 -1 -90 5
-143 25 -68 26 -70 26 -141 12 -39 -9 -90 -13 -114 -11 -32 4 -46 1 -55 -11
-15 -20 -128 -66 -162 -66 -14 0 -43 11 -65 25 -39 24 -41 25 -78 9 -20 -8
-75 -22 -122 -30 -47 -9 -103 -21 -125 -28 -22 -8 -59 -17 -82 -21 l-43 -7 0
236 0 236 139 0 c77 0 151 -4 165 -10 16 -6 27 -6 31 0 9 14 481 13 506 0 13
-7 19 -7 19 0 0 15 252 13 269 -2 9 -9 12 -9 7 -1 -14 26 137 32 166 6z m651
-244 c25 -7 41 -18 47 -33 9 -24 55 -66 73 -66 6 0 19 -8 29 -17 11 -10 47
-29 80 -43 71 -29 82 -45 37 -54 -73 -14 -120 -7 -156 24 -18 17 -42 30 -51
30 -10 0 -22 4 -27 9 -6 6 -32 11 -60 13 -49 3 -50 4 -47 33 2 17 3 49 2 73 0
47 6 50 73 31z m-981 -104 c46 -21 80 -27 186 -34 28 -2 9 -31 -35 -53 -26
-13 -70 -46 -98 -74 -50 -50 -103 -78 -128 -68 -7 2 -30 -3 -51 -11 -44 -19
-52 -15 -36 14 8 17 20 21 59 21 l47 0 17 54 c15 47 22 55 47 61 53 12 32 25
-39 25 -52 0 -70 4 -75 15 -3 8 -12 15 -21 15 -28 0 -15 25 23 42 49 21 42 22
104 -7z m-197 -75 c-6 -25 -4 -30 13 -30 22 0 37 -26 21 -36 -6 -3 -16 -1 -22
5 -18 18 -24 13 -47 -46 -13 -32 -29 -65 -37 -74 -8 -9 -13 -20 -12 -25 4 -26
-2 -35 -21 -29 -23 7 -26 -6 -7 -36 10 -17 9 -22 -5 -30 -9 -5 -15 -16 -12
-23 4 -10 -11 -15 -56 -20 -34 -4 -58 -11 -55 -17 4 -5 -4 -14 -17 -19 -18 -7
-14 -8 17 -3 73 13 90 10 87 -12 -5 -28 -6 -28 -47 -14 -30 11 -38 11 -44 0
-5 -8 -37 -14 -91 -16 -46 -2 -105 -7 -132 -10 -32 -5 -48 -3 -48 4 0 6 -16
11 -36 11 -24 0 -34 4 -32 13 6 16 47 22 61 8 6 -6 31 -10 57 -10 39 1 41 2
15 8 l-30 7 29 7 c15 5 26 11 22 14 -3 3 -1 12 5 19 7 9 7 19 0 33 -20 36 -14
43 32 36 54 -9 72 -25 27 -25 -46 0 -35 -6 25 -14 29 -3 44 -2 36 3 -8 5 15
11 65 16 44 4 88 12 98 17 17 9 15 12 -20 24 -21 7 -41 9 -44 4 -3 -5 -12 -8
-20 -8 -35 2 -50 -3 -50 -17 0 -17 -25 -20 -35 -5 -3 6 -19 10 -36 10 -16 0
-29 4 -29 9 0 5 -10 11 -22 13 -13 2 -22 9 -21 16 2 8 -12 10 -55 6 -49 -5
-60 -4 -65 10 -4 9 -13 16 -21 16 -9 0 -14 8 -13 20 1 23 27 37 27 15 0 -8 5
-15 10 -15 6 0 10 7 10 15 0 8 4 15 9 15 5 0 14 -7 21 -15 17 -21 30 -19 30 5
0 18 3 19 21 9 16 -8 23 -8 29 1 6 9 9 9 15 0 4 -7 -2 -18 -14 -26 -23 -17
-20 -37 4 -28 8 4 12 10 9 15 -3 5 3 12 13 16 10 4 23 14 30 22 11 14 12 14
13 -3 0 -15 5 -17 28 -13 27 6 28 4 24 -26 -3 -18 -12 -37 -21 -44 -14 -11
-14 -12 0 -13 20 0 39 20 39 42 0 18 11 24 23 11 4 -3 2 -12 -4 -19 -12 -15 3
-27 24 -19 8 4 12 15 10 28 -5 33 10 50 38 42 21 -7 21 -9 6 -20 -23 -17 -21
-35 3 -35 11 0 20 6 20 14 0 8 7 17 16 20 15 6 15 8 0 31 -27 41 -21 87 17
122 35 34 94 71 115 72 10 1 12 -7 7 -29z m-431 -1 c-17 -19 -65 -49 -79 -49
-3 0 -5 6 -5 13 0 26 42 52 89 56 10 1 9 -5 -5 -20z m531 -16 c11 -2 23 -7 28
-12 13 -13 -11 -51 -32 -51 -25 0 -32 10 -20 31 7 15 6 21 -6 25 -8 3 -15 10
-15 16 0 5 6 6 13 1 6 -4 21 -9 32 -10z m1850 0 c41 -14 56 -14 94 -4 l46 12
37 -43 c21 -24 38 -46 38 -49 0 -9 -120 -28 -138 -22 -9 3 -37 22 -62 43 -25
20 -53 39 -62 43 -18 6 -26 37 -10 37 5 0 30 -7 57 -17z m-2565 -12 c0 -5 -15
-15 -32 -22 -18 -7 -52 -31 -75 -52 -47 -43 -61 -42 -59 5 1 26 7 34 26 40 14
3 48 13 75 21 62 19 65 19 65 8z m617 -156 c-20 -56 -31 -66 -40 -41 -7 18 32
96 48 96 9 0 7 -14 -8 -55z m-227 21 c0 -3 -4 -8 -10 -11 -5 -3 -10 -1 -10 4
0 6 5 11 10 11 6 0 10 -2 10 -4z m1220 -8 c0 -3 -13 -11 -30 -17 -33 -11 -37
-22 -15 -41 13 -11 18 -10 29 5 10 13 17 15 32 8 25 -13 80 -23 87 -16 3 3 -3
15 -14 26 -39 42 -11 51 73 24 40 -13 51 -13 74 -1 33 17 34 17 34 -2 0 -11 6
-14 23 -8 12 3 23 11 25 15 4 10 52 1 66 -12 5 -5 4 -14 -4 -24 -14 -17 -35
-21 -25 -5 3 6 -1 10 -9 10 -20 0 -30 -17 -14 -24 10 -3 8 -9 -4 -19 -23 -19
-23 -27 2 -27 11 0 20 5 20 10 0 6 7 10 15 10 8 0 15 6 15 14 0 13 22 28 45
30 6 1 10 11 9 23 0 18 4 21 27 16 14 -3 30 0 33 6 15 23 27 10 21 -22 -6 -30
-4 -33 19 -35 28 -2 35 12 11 22 -8 3 -15 10 -15 16 0 7 6 8 19 0 25 -13 34
-13 26 0 -4 7 2 9 18 5 14 -4 28 -2 31 4 9 14 46 14 46 1 0 -7 7 -7 21 0 15 9
24 8 36 -2 14 -11 17 -11 21 1 4 11 6 11 13 0 6 -11 11 -10 26 4 25 22 95 13
85 -12 -3 -9 -10 -19 -16 -23 -7 -5 -4 -8 7 -8 9 0 17 6 17 14 0 24 141 33
148 11 1 -6 -8 -11 -22 -13 -13 -2 -30 -10 -38 -19 -12 -15 -10 -16 15 -9 18
4 26 3 23 -3 -6 -9 22 -31 38 -31 2 0 6 14 8 32 2 17 9 34 17 36 8 3 11 0 7
-7 -4 -6 -3 -11 3 -11 5 0 11 5 13 12 3 7 12 9 24 4 18 -7 18 -8 2 -17 -19
-11 -25 -59 -7 -59 6 0 17 7 25 15 9 8 20 15 25 15 5 0 9 -7 9 -15 0 -8 7 -15
15 -15 8 0 15 7 15 16 0 12 7 14 32 9 27 -6 35 -3 60 25 17 21 28 27 28 18 0
-9 9 -18 20 -21 17 -4 20 -2 15 14 -6 17 -3 19 20 13 24 -6 27 -4 20 15 -7 24
10 29 19 5 3 -9 -4 -25 -19 -40 -16 -16 -20 -24 -10 -24 8 0 15 -5 15 -11 0
-6 -7 -9 -15 -5 -8 3 -15 1 -15 -4 0 -6 7 -10 15 -10 8 0 14 -6 12 -12 -1 -7
4 -12 12 -10 7 1 22 0 33 -4 19 -6 19 -6 1 -20 -24 -18 -63 -17 -87 1 -11 8
-39 15 -62 15 -24 0 -46 5 -49 10 -4 6 -11 8 -16 5 -19 -12 -8 -23 29 -30 45
-7 108 -28 119 -39 4 -4 1 -11 -7 -16 -13 -8 -13 -10 1 -10 59 0 102 28 46 31
-15 1 -11 4 12 9 22 5 44 3 66 -6 26 -11 34 -11 38 -1 8 21 29 -8 25 -34 -2
-18 -10 -25 -31 -27 -15 -2 -25 -8 -22 -13 4 -5 -16 -9 -44 -9 -54 0 -66 14
-28 31 19 8 18 9 -8 3 -16 -3 -42 -6 -58 -6 -27 -1 -27 -1 -7 -15 28 -20 121
-28 160 -15 25 9 32 9 37 -3 10 -26 -17 -45 -64 -45 -26 0 -46 -5 -48 -13 -6
-15 -168 -14 -205 1 -20 9 -9 10 50 7 l75 -4 -60 15 c-90 22 -92 23 -75 34 12
8 11 10 -7 10 -16 0 -21 -5 -18 -19 3 -16 -4 -19 -43 -24 -50 -5 -108 -24
-100 -33 3 -2 17 0 32 6 35 13 119 13 111 0 -4 -6 6 -10 24 -10 16 0 33 -4 36
-10 5 -8 -102 -17 -137 -11 -5 0 -8 -3 -8 -8 0 -12 59 -20 66 -9 9 13 51 9 64
-7 11 -13 6 -15 -39 -15 -37 0 -50 -3 -45 -11 7 -11 -26 -9 -93 8 -14 3 -23 1
-23 -6 0 -16 -29 -13 -47 5 -13 12 -13 15 -2 13 8 -1 36 1 63 6 32 5 44 10 35
16 -21 13 -61 11 -107 -5 -25 -9 -44 -11 -47 -5 -4 5 3 9 14 9 23 0 37 16 19
22 -6 2 4 10 23 17 19 7 48 20 64 28 26 13 27 14 5 9 -97 -19 -103 -19 -116
-1 -12 16 -23 17 -89 12 -49 -5 -74 -3 -70 3 3 6 19 10 36 10 16 0 29 4 29 9
0 27 137 38 162 13 10 -10 10 -15 -2 -22 -13 -8 -12 -10 2 -10 36 0 108 25
108 37 0 7 6 13 13 13 32 0 134 -23 159 -36 17 -9 29 -10 33 -4 4 6 -11 18
-31 26 -21 9 -43 23 -50 31 -13 18 -124 23 -189 9 -31 -6 -37 -6 -29 4 6 6 42
17 80 23 56 10 69 15 66 29 -3 14 -15 16 -95 13 -51 -2 -96 -4 -100 -4 -5 -1
-5 -6 -1 -12 4 -7 28 -8 68 -4 67 7 62 -9 -7 -21 -26 -4 -37 -10 -33 -19 7
-18 -52 -31 -67 -15 -9 8 -7 14 7 22 17 10 17 11 -5 22 -13 7 -23 20 -23 29 2
18 -30 24 -40 8 -3 -5 -21 -12 -39 -15 -39 -7 -75 -31 -65 -42 4 -4 13 -2 20
3 15 11 59 3 60 -12 1 -5 -20 -13 -46 -17 -61 -8 -67 -15 -25 -26 l34 -9 -30
-12 c-20 -9 -31 -9 -33 -2 -2 7 -14 8 -29 5 -18 -5 -24 -3 -19 5 5 7 -3 11
-23 11 -37 0 -43 26 -8 34 12 2 -3 3 -33 2 -30 -2 -56 -9 -58 -15 -2 -7 -15
-17 -29 -22 -17 -6 -23 -14 -19 -25 3 -8 1 -14 -7 -13 -27 3 -62 -3 -47 -8 8
-3 17 -9 20 -13 8 -11 80 -20 80 -9 0 5 -8 9 -17 9 -15 0 -16 2 -3 10 8 5 29
10 47 10 17 0 38 7 46 15 13 12 19 13 41 1 14 -7 22 -17 18 -21 -4 -4 5 -5 21
-3 15 3 27 1 27 -3 0 -5 16 -9 35 -9 23 0 35 -5 35 -14 0 -11 -8 -12 -37 -5
-21 5 -49 9 -63 9 -20 0 -22 -2 -10 -11 11 -8 5 -9 -25 -5 -27 4 -35 2 -25 -4
11 -7 5 -10 -22 -10 -21 0 -38 -4 -38 -10 0 -5 11 -10 25 -10 18 0 25 -5 25
-20 0 -11 7 -20 15 -20 8 0 15 -4 15 -10 0 -5 -19 -9 -42 -9 -24 1 -35 3 -25
6 41 11 5 34 -82 54 -36 8 -49 14 -40 20 9 6 0 8 -26 8 -53 -1 -90 -12 -91
-27 -1 -7 -2 -14 -3 -17 0 -2 -16 4 -34 14 -38 21 -65 28 -162 36 -38 4 -73 9
-76 11 -4 2 -36 6 -71 8 -53 3 -58 2 -33 -6 17 -6 38 -17 47 -25 15 -14 19
-14 32 0 15 15 66 12 66 -4 0 -5 -15 -13 -32 -18 l-33 -9 43 -7 c62 -11 62
-25 -2 -25 -37 0 -60 5 -71 16 -13 14 -28 15 -78 10 -37 -3 -66 -12 -73 -21
-13 -17 -50 -20 -59 -5 -3 6 -16 10 -28 10 -16 0 -18 -3 -9 -9 25 -16 -9 -18
-166 -13 -143 4 -151 6 -130 21 23 15 22 16 -32 28 l-55 12 48 -5 c32 -4 54
-1 64 7 13 12 13 14 -4 20 -28 12 -95 11 -88 -1 3 -5 -3 -10 -15 -10 -11 0
-23 -7 -26 -15 -7 -17 -51 -20 -56 -4 -3 8 -16 8 -47 -1 -29 -8 -41 -16 -37
-25 8 -22 -23 -26 -44 -5 -11 11 -24 20 -28 20 -5 0 -17 9 -28 21 -16 17 -16
22 -4 29 12 8 10 10 -8 10 -13 0 -20 4 -17 10 3 6 -3 10 -14 10 -12 0 -21 5
-21 10 0 6 -8 10 -17 11 -10 0 -2 7 17 14 19 7 27 14 18 14 -10 1 -18 8 -18
17 0 12 -6 15 -24 10 -14 -3 -28 -2 -31 4 -3 5 0 10 7 10 10 0 10 2 -1 9 -21
13 -4 31 30 31 16 0 29 4 29 9 0 6 21 11 48 13 l47 3 -30 15 c-16 8 -38 22
-47 32 -20 19 -24 58 -7 58 5 0 7 5 4 10 -3 6 0 10 9 10 8 0 21 3 29 6 10 3
15 -1 14 -12 -1 -10 6 -20 16 -22 10 -2 17 3 17 11 0 19 60 29 80 12 20 -16
50 -26 50 -17 0 4 -9 13 -21 20 -33 21 -14 26 20 6 17 -10 31 -26 31 -35 0
-10 7 -24 15 -33 8 -8 15 -19 15 -25 0 -6 10 -11 22 -11 20 0 20 1 3 20 -9 10
-15 26 -11 35 3 9 -1 18 -9 21 -21 8 -19 21 4 27 14 3 18 1 14 -9 -3 -9 1 -14
12 -14 9 0 13 -4 10 -10 -3 -5 2 -10 11 -10 14 0 15 3 6 12 -7 7 -12 18 -12
25 0 20 21 15 27 -6 6 -23 50 -36 68 -21 9 8 15 8 20 0 11 -18 35 -11 35 10 0
12 7 20 17 20 13 0 14 -3 5 -12 -7 -7 -12 -20 -12 -29 0 -9 -6 -19 -14 -22 -9
-4 -12 -14 -9 -26 7 -26 -11 -27 -29 -3 -31 44 -100 53 -77 11 6 -12 17 -18
27 -15 9 3 24 1 32 -4 12 -8 11 -10 -7 -10 -13 0 -23 -4 -23 -10 0 -5 9 -10
20 -10 16 0 18 -4 11 -22 -7 -20 -15 -23 -62 -21 l-54 2 45 -9 c25 -5 54 -15
66 -21 11 -6 36 -9 55 -7 36 3 48 23 33 56 -4 9 -7 24 -8 32 0 19 34 60 51 60
19 0 24 16 13 44 -8 21 -7 26 6 26 8 0 12 -4 9 -10 -8 -13 -4 -13 90 9 76 17
205 23 205 9z m-1620 -13 c0 -8 7 -15 16 -15 13 0 15 -6 9 -27 -4 -16 -8 -30
-10 -32 -2 -2 -24 12 -49 30 -45 32 -47 32 -61 13 -8 -10 -15 -22 -15 -26 0
-18 -28 -6 -33 14 -7 26 10 40 63 49 63 11 80 10 80 -6z m2910 2 c0 -8 -11
-12 -27 -11 -39 2 -40 3 -23 14 22 14 50 12 50 -3z m-100 -7 c8 -5 11 -10 6
-10 -6 0 -1 -7 10 -15 20 -15 21 -15 -28 -19 -7 -1 -14 11 -15 27 -2 29 3 32
27 17z m-2126 -16 c9 -8 14 -20 11 -24 -5 -8 -45 23 -45 35 0 10 19 4 34 -11z
m999 -5 c-6 -6 -18 -6 -28 -3 -18 7 -18 8 1 14 23 9 39 1 27 -11z m1454 -16
c-17 -18 -22 -8 -11 22 5 12 10 13 17 6 8 -8 6 -16 -6 -28z m-1867 7 c0 -5 -5
-10 -11 -10 -5 0 -7 5 -4 10 3 6 8 10 11 10 2 0 4 -4 4 -10z m1820 -20 c0 -5
-7 -7 -15 -4 -8 4 -12 10 -9 15 6 11 24 2 24 -11z m-3125 -10 c3 -5 1 -10 -4
-10 -6 0 -11 5 -11 10 0 6 2 10 4 10 3 0 8 -4 11 -10z m750 -11 c-4 -6 2 -13
14 -16 12 -3 21 -9 21 -14 0 -13 -37 -11 -45 1 -7 12 0 40 10 40 4 0 3 -5 0
-11z m-615 -9 c0 -5 -4 -10 -10 -10 -5 0 -10 5 -10 10 0 6 5 10 10 10 6 0 10
-4 10 -10z m70 0 c0 -5 -2 -10 -4 -10 -3 0 -8 5 -11 10 -3 6 -1 10 4 10 6 0
11 -4 11 -10z m-282 -23 c2 -12 -3 -17 -17 -17 -23 0 -24 1 -15 25 8 19 28 15
32 -8z m120 -4 c2 -9 -7 -13 -28 -13 -26 0 -29 2 -18 15 15 17 39 16 46 -2z
m127 -14 c-4 -5 -20 -9 -38 -9 -33 0 -28 15 8 22 24 5 37 0 30 -13z m488 14
c-7 -2 -19 -2 -25 0 -7 3 -2 5 12 5 14 0 19 -2 13 -5z m2507 -13 c0 -5 -2 -10
-4 -10 -3 0 -8 5 -11 10 -3 6 -1 10 4 10 6 0 11 -4 11 -10z m-2415 -10 c3 -5
-1 -10 -9 -10 -9 0 -16 5 -16 10 0 6 4 10 9 10 6 0 13 -4 16 -10z m-535 -20
c0 -28 -44 -48 -66 -29 -15 12 -14 15 6 31 30 25 60 23 60 -2z m2323 -7 c-7
-2 -19 -2 -25 0 -7 3 -2 5 12 5 14 0 19 -2 13 -5z m-1922 -10 c-19 -4 -21 -7
-10 -14 11 -7 11 -9 -3 -9 -18 0 -23 11 -11 23 3 4 16 6 27 6 18 -2 17 -2 -3
-6z m2239 -37 c0 -3 -4 -8 -10 -11 -5 -3 -10 -1 -10 4 0 6 5 11 10 11 6 0 10
-2 10 -4z m-2813 -17 c-10 -6 -49 -13 -88 -15 -53 -3 -69 -1 -69 9 0 10 22 14
88 15 64 1 82 -2 69 -9z m689 -57 c58 -31 144 -119 123 -126 -8 -2 -41 -7 -73
-10 -52 -4 -65 -1 -105 22 -25 14 -47 30 -49 34 -2 4 -15 8 -29 8 -22 0 -24 3
-19 26 20 77 67 91 152 46z m1869 -32 c3 -5 -1 -10 -9 -10 -9 0 -16 5 -16 10
0 6 4 10 9 10 6 0 13 -4 16 -10z m612 -22 c-3 -18 -12 -23 -42 -26 -21 -2 -47
-8 -59 -13 -14 -6 -1 -7 39 -3 40 3 55 2 46 -4 -7 -5 -10 -15 -7 -21 5 -8 -32
-11 -131 -10 -76 1 -128 4 -115 7 13 4 24 12 25 17 1 6 17 9 35 7 22 -2 32 1
27 7 -3 6 -25 11 -48 11 -31 1 -38 3 -26 10 10 6 29 6 50 0 19 -6 43 -10 54
-10 17 0 17 2 5 10 -11 7 0 10 37 10 33 0 57 5 65 15 21 23 48 19 45 -7z
m-681 -9 c3 -5 14 -9 24 -9 10 0 22 -5 26 -12 5 -8 2 -9 -10 -5 -14 5 -17 3
-12 -8 5 -13 1 -13 -27 1 -21 11 -59 18 -109 19 -119 2 -111 13 22 27 35 4 79
-3 86 -13z m-406 -29 c0 -5 -14 -10 -31 -10 -17 0 -28 4 -24 10 3 6 17 10 31
10 13 0 24 -4 24 -10z m-1045 -10 c4 -6 -7 -10 -25 -10 -18 0 -29 4 -25 10 3
6 15 10 25 10 10 0 22 -4 25 -10z m1415 -5 c11 -13 8 -15 -18 -15 -17 0 -32 6
-36 15 -4 11 1 15 18 15 13 0 29 -7 36 -15z m-829 -11 c-21 -15 -24 -15 -39 0
-15 15 -13 16 23 16 39 0 39 0 16 -16z m272 -1 c-7 -2 -19 -2 -25 0 -7 3 -2 5
12 5 14 0 19 -2 13 -5z m187 -3 c0 -5 -15 -10 -32 -10 -25 0 -29 3 -18 10 20
13 50 13 50 0z m427 -6 c-3 -3 -12 -4 -19 -1 -8 3 -5 6 6 6 11 1 17 -2 13 -5z
m-322 -64 c112 -1 118 -2 93 -16 -49 -26 -61 -71 -28 -104 27 -27 77 -26 107
2 l23 21 0 -21 c0 -32 47 -31 53 1 l4 22 8 -22 c9 -27 33 -37 51 -22 11 9 11
15 3 25 -6 7 -8 26 -4 43 5 23 2 32 -17 45 -26 18 -61 21 -89 6 -14 -8 -26 -7
-46 4 -25 14 15 15 400 16 l428 0 -2 -767 c-1 -423 -5 -835 -9 -918 -18 -370
-133 -698 -331 -946 -50 -63 -121 -145 -158 -182 -80 -83 -279 -217 -416 -282
-55 -27 -136 -65 -180 -86 -172 -81 -375 -153 -508 -179 -43 -9 -71 -9 -115 1
-57 11 -229 62 -267 78 -11 5 -47 19 -80 31 -165 64 -469 215 -579 289 -149
100 -280 224 -343 326 -14 22 -31 45 -38 50 -17 14 -97 139 -129 202 -35 70
-71 166 -107 288 -64 217 -62 172 -66 1184 l-4 923 1113 -6 c612 -3 1167 -6
1233 -6z m155 -74 c0 -28 -17 -37 -44 -23 -18 9 -18 10 5 28 32 25 39 24 39
-5z"/>
<path d="M1760 4706 c0 -3 9 -10 20 -16 11 -6 20 -8 20 -6 0 3 -9 10 -20 16
-11 6 -20 8 -20 6z"/>
<path d="M3174 4679 c-19 -22 -19 -22 4 -8 12 8 22 17 22 21 0 12 -6 9 -26
-13z"/>
<path d="M2366 4657 c3 -10 9 -15 12 -12 3 3 0 11 -7 18 -10 9 -11 8 -5 -6z"/>
<path d="M2979 4643 c-13 -16 -12 -17 4 -4 9 7 17 15 17 17 0 8 -8 3 -21 -13z"/>
<path d="M3130 4639 c0 -5 5 -7 10 -4 6 3 10 8 10 11 0 2 -4 4 -10 4 -5 0 -10
-5 -10 -11z"/>
<path d="M2015 4557 c37 -25 155 -88 155 -83 0 5 -159 96 -168 96 -4 0 2 -6
13 -13z"/>
<path d="M2360 4526 c0 -2 8 -10 18 -17 15 -13 16 -12 3 4 -13 16 -21 21 -21
13z"/>
<path d="M2395 4480 c3 -5 8 -10 11 -10 2 0 4 5 4 10 0 6 -5 10 -11 10 -5 0
-7 -4 -4 -10z"/>
<path d="M2187 4459 c7 -7 15 -10 18 -7 3 3 -2 9 -12 12 -14 6 -15 5 -6 -5z"/>
<path d="M1957 4449 c7 -7 15 -10 18 -7 3 3 -2 9 -12 12 -14 6 -15 5 -6 -5z"/>
<path d="M3015 4440 c-3 -6 1 -7 9 -4 18 7 21 14 7 14 -6 0 -13 -4 -16 -10z"/>
<path d="M1320 4070 c-13 -8 -12 -10 3 -10 9 0 17 5 17 10 0 12 -1 12 -20 0z"/>
<path d="M1355 3940 c-16 -7 -17 -9 -3 -9 9 -1 20 4 23 9 7 11 7 11 -20 0z"/>
<path d="M2909 4092 c-8 -3 -23 -12 -33 -21 -14 -12 -20 -13 -23 -3 -3 6 -19
12 -36 12 -31 0 -30 -1 18 -24 28 -14 43 -25 35 -26 -8 0 -1 -7 15 -14 l30
-13 -40 -8 c-53 -11 -85 -11 -114 -1 -16 6 -21 5 -17 -3 5 -7 -2 -11 -16 -11
-13 0 -29 -4 -36 -9 -19 -11 6 -20 80 -28 48 -5 58 -9 58 -24 0 -11 5 -19 10
-19 6 0 10 5 10 10 0 6 11 10 25 10 14 0 25 -4 25 -9 0 -17 72 -22 144 -10 55
8 78 8 95 0 14 -8 21 -8 21 -1 0 5 -5 10 -12 10 -6 0 -19 7 -29 16 -10 9 -38
18 -64 20 -39 3 -45 1 -45 -16 0 -17 -6 -20 -42 -19 -24 1 -35 3 -25 6 35 9
15 18 -34 14 -28 -1 -56 2 -61 7 -8 8 -4 9 11 5 25 -6 129 15 137 29 3 4 -10
8 -29 8 -22 0 -37 6 -41 15 -3 8 -1 15 4 15 5 0 7 6 4 14 -3 8 4 16 20 20 15
4 23 11 20 19 -6 16 -47 34 -65 29z m26 -32 c4 -6 -7 -10 -27 -9 -27 0 -30 2
-13 9 27 12 33 12 40 0z m-38 -86 c-3 -3 -12 -4 -19 -1 -8 3 -5 6 6 6 11 1 17
-2 13 -5z"/>
<path d="M3355 4090 c3 -5 13 -10 21 -10 8 0 14 5 14 10 0 6 -9 10 -21 10 -11
0 -17 -4 -14 -10z"/>
<path d="M1940 4080 c0 -5 5 -10 10 -10 6 0 10 5 10 10 0 6 -4 10 -10 10 -5 0
-10 -4 -10 -10z"/>
<path d="M3115 4080 c3 -5 11 -10 16 -10 6 0 7 5 4 10 -3 6 -11 10 -16 10 -6
0 -7 -4 -4 -10z"/>
<path d="M3240 4065 c-10 -12 -10 -15 0 -15 8 0 21 -7 31 -16 24 -22 48 -14
25 8 -9 9 -16 21 -16 27 0 16 -26 13 -40 -4z"/>
<path d="M3528 4063 c7 -3 16 -2 19 1 4 3 -2 6 -13 5 -11 0 -14 -3 -6 -6z"/>
<path d="M1834 4043 c3 -8 6 -17 6 -19 0 -2 17 -4 37 -4 42 0 38 8 -13 26 -31
10 -35 10 -30 -3z"/>
<path d="M3072 4036 c1 -11 -1 -27 -6 -35 -7 -10 -2 -12 25 -6 27 5 31 4 19
-5 -12 -9 -4 -10 34 -6 27 3 72 7 100 7 28 1 41 4 28 6 -13 3 -26 11 -29 19
-3 8 -15 14 -27 14 -15 0 -17 -3 -7 -9 20 -13 1 -19 -46 -16 -53 4 -68 12 -53
30 8 10 4 14 -15 18 -22 4 -26 1 -23 -17z"/>
<path d="M3175 4050 c3 -5 11 -10 16 -10 6 0 7 5 4 10 -3 6 -11 10 -16 10 -6
0 -7 -4 -4 -10z"/>
<path d="M1923 4043 c9 -2 17 -11 17 -19 0 -8 -8 -14 -17 -15 -11 0 -13 -3 -5
-6 6 -2 12 -11 12 -18 0 -7 17 -20 37 -28 l37 -14 -32 -7 c-17 -4 -30 -13 -29
-19 3 -16 -87 -22 -110 -7 -15 9 -13 10 14 7 26 -3 30 -1 22 10 -15 17 -47 17
-64 -1 -12 -12 -12 -15 1 -20 8 -3 13 -10 9 -16 -4 -6 15 -8 52 -5 69 5 113
16 113 30 0 19 50 28 76 14 26 -14 47 -4 24 12 -10 5 -11 12 -5 17 14 10 17
32 5 32 -6 0 -20 11 -32 25 -24 28 -48 33 -48 10 0 -8 5 -15 10 -15 6 0 10 -4
10 -10 0 -5 -18 -10 -40 -10 -22 0 -40 5 -40 10 0 6 4 10 9 10 6 0 9 9 8 20
-1 15 -8 20 -27 19 -17 -1 -19 -3 -7 -6z m72 -73 c3 -5 1 -10 -4 -10 -6 0 -11
5 -11 10 0 6 2 10 4 10 3 0 8 -4 11 -10z"/>
<path d="M2647 4043 c-12 -11 -8 -23 7 -23 7 0 19 7 26 15 10 12 9 15 -7 15
-11 0 -23 -3 -26 -7z"/>
<path d="M3585 4043 c11 -3 24 -9 30 -14 15 -15 28 -10 15 6 -7 8 -24 14 -39
14 -20 -1 -22 -2 -6 -6z"/>
<path d="M2710 4030 c0 -5 7 -10 15 -10 8 0 15 5 15 10 0 6 -7 10 -15 10 -8 0
-15 -4 -15 -10z"/>
<path d="M3370 4026 c0 -19 30 -29 46 -15 22 18 16 29 -16 29 -19 0 -30 -5
-30 -14z"/>
<path d="M2780 4020 c-12 -8 -11 -10 7 -10 12 0 25 5 28 10 8 13 -15 13 -35 0z"/>
<path d="M3450 4010 c0 -16 -7 -20 -35 -20 -19 0 -35 -5 -35 -11 0 -8 15 -10
47 -5 54 7 66 16 57 39 -9 24 -34 21 -34 -3z"/>
<path d="M2570 4011 c0 -5 -19 -9 -41 -9 -66 -1 -78 -31 -21 -53 38 -15 113
-2 105 17 -3 8 1 14 11 14 9 0 16 5 16 10 0 6 -7 10 -15 10 -8 0 -15 5 -15 10
0 6 -9 10 -20 10 -11 0 -20 -4 -20 -9z m30 -45 c0 -9 -40 -13 -46 -5 -3 5 6 9
20 9 14 0 26 -2 26 -4z"/>
<path d="M2668 4003 c7 -3 16 -2 19 1 4 3 -2 6 -13 5 -11 0 -14 -3 -6 -6z"/>
<path d="M3688 4003 c7 -3 16 -2 19 1 4 3 -2 6 -13 5 -11 0 -14 -3 -6 -6z"/>
<path d="M3308 3973 c7 -3 16 -2 19 1 4 3 -2 6 -13 5 -11 0 -14 -3 -6 -6z"/>
<path d="M2123 3963 c9 -2 25 -2 35 0 9 3 1 5 -18 5 -19 0 -27 -2 -17 -5z"/>
<path d="M3206 3961 c-18 -7 -18 -8 -2 -14 31 -12 98 -8 94 6 -5 14 -64 20
-92 8z"/>
<path d="M1870 3950 c0 -5 5 -10 10 -10 6 0 10 5 10 10 0 6 -4 10 -10 10 -5 0
-10 -4 -10 -10z"/>
<path d="M3388 3943 c7 -3 16 -2 19 1 4 3 -2 6 -13 5 -11 0 -14 -3 -6 -6z"/>
<path d="M2497 3906 c3 -5 30 -6 59 -3 30 3 54 2 54 -1 0 -4 21 -6 46 -4 34 3
61 -3 106 -23 46 -21 71 -26 104 -22 24 2 44 1 44 -3 0 -12 -27 -20 -66 -20
-19 0 -34 -5 -34 -11 0 -6 11 -8 28 -4 26 5 112 -4 196 -21 17 -4 26 -2 23 3
-4 6 14 8 46 5 29 -2 49 -1 46 2 -6 6 -78 12 -209 17 l-45 1 35 10 c60 17 81
28 75 38 -8 14 -45 13 -45 -1 0 -6 -6 -9 -14 -6 -37 14 -89 19 -82 8 8 -12
-14 -13 -54 -2 -30 8 -33 34 -5 42 11 3 -55 5 -147 5 -92 -1 -164 -5 -161 -10z"/>
<path d="M2041 3901 c-61 -11 -13 -28 83 -30 49 -1 92 -2 95 -3 3 0 15 0 26 1
19 2 19 2 1 13 -12 7 -44 8 -87 4 -61 -5 -99 4 -67 17 17 7 -7 6 -51 -2z"/>
<path d="M3950 3900 c8 -5 22 -10 30 -10 13 0 13 1 0 10 -8 5 -22 10 -30 10
-13 0 -13 -1 0 -10z"/>
<path d="M4133 3903 c9 -2 23 -2 30 0 6 3 -1 5 -18 5 -16 0 -22 -2 -12 -5z"/>
<path d="M2510 3880 c19 -12 60 -13 60 -2 0 5 -17 9 -37 10 -28 1 -34 -1 -23
-8z"/>
<path d="M2571 3864 c-62 -17 -97 -44 -59 -45 22 0 22 -1 3 -9 -14 -6 3 -8 50
-8 39 0 60 3 48 5 -13 2 -23 9 -23 14 0 5 10 10 23 10 17 1 16 3 -8 8 l-30 7
35 16 c43 20 31 21 -39 2z"/>
<path d="M3130 3870 c19 -13 30 -13 30 0 0 6 -10 10 -22 10 -19 0 -20 -2 -8
-10z"/>
<path d="M1888 3863 c7 -3 16 -2 19 1 4 3 -2 6 -13 5 -11 0 -14 -3 -6 -6z"/>
<path d="M3595 3860 c-18 -8 -17 -9 8 -9 15 -1 27 4 27 9 0 12 -8 12 -35 0z"/>
<path d="M1948 3843 c-3 -13 -17 -22 -38 -26 -19 -4 -30 -12 -28 -19 3 -7 10
-13 16 -12 7 1 24 2 38 3 14 0 22 5 19 11 -10 16 43 23 88 12 58 -15 192 6
170 27 -8 7 -26 11 -41 8 -15 -3 -44 -8 -66 -13 -24 -4 -40 -3 -45 4 -3 6 -29
14 -57 17 -45 6 -52 5 -56 -12z"/>
<path d="M2078 3853 c7 -3 16 -2 19 1 4 3 -2 6 -13 5 -11 0 -14 -3 -6 -6z"/>
<path d="M2676 3851 c-4 -5 21 -11 54 -13 64 -3 80 5 29 16 -45 9 -77 7 -83
-3z"/>
<path d="M1835 3840 c3 -5 1 -10 -6 -10 -7 0 -10 -3 -6 -6 3 -3 15 -3 26 1 23
7 19 25 -5 25 -8 0 -12 -4 -9 -10z"/>
<path d="M3825 3840 c-3 -6 1 -7 9 -4 18 7 21 14 7 14 -6 0 -13 -4 -16 -10z"/>
<path d="M2348 3833 c6 -2 18 -2 25 0 6 3 1 5 -13 5 -14 0 -19 -2 -12 -5z"/>
<path d="M4075 3830 c-3 -5 1 -10 9 -10 8 0 18 5 21 10 3 6 -1 10 -9 10 -8 0
-18 -4 -21 -10z"/>
<path d="M2218 3803 c7 -3 16 -2 19 1 4 3 -2 6 -13 5 -11 0 -14 -3 -6 -6z"/>
<path d="M3260 3806 c0 -2 14 -6 30 -8 17 -3 30 -1 30 4 0 4 -13 8 -30 8 -16
0 -30 -2 -30 -4z"/>
<path d="M2545 3775 c-25 -12 -26 -14 -5 -9 14 4 29 10 35 15 12 12 5 11 -30
-6z"/>
<path d="M3670 3780 c0 -5 9 -10 21 -10 11 0 17 5 14 10 -3 6 -13 10 -21 10
-8 0 -14 -4 -14 -10z"/>
<path d="M2590 3760 c-30 -11 -44 -17 -30 -15 14 3 46 8 73 12 26 3 47 10 47
14 0 14 -30 10 -90 -11z"/>
<path d="M3208 3773 c7 -3 16 -2 19 1 4 3 -2 6 -13 5 -11 0 -14 -3 -6 -6z"/>
<path d="M2388 3753 c12 -2 32 -2 45 0 12 2 2 4 -23 4 -25 0 -35 -2 -22 -4z"/>
<path d="M2278 3743 c7 -3 16 -2 19 1 4 3 -2 6 -13 5 -11 0 -14 -3 -6 -6z"/>
<path d="M1007 3619 c-14 -8 -16 -14 -6 -25 7 -8 9 -30 6 -54 -4 -35 -2 -40
14 -40 13 0 19 7 19 23 l1 22 19 -23 c11 -13 27 -22 37 -20 15 3 18 14 18 62
0 32 -4 60 -8 63 -12 7 -38 -18 -30 -31 3 -6 -5 -1 -19 12 -28 25 -27 25 -51
11z"/>
<path d="M1200 3623 c-74 -27 -62 -123 16 -123 35 0 47 8 63 37 28 55 -20 107
-79 86z m55 -59 c0 -13 -8 -20 -27 -22 -32 -4 -37 14 -10 34 22 17 37 12 37
-12z"/>
<path d="M1322 3618 c-22 -22 -14 -48 18 -59 17 -6 30 -17 30 -25 0 -19 -16
-18 -24 1 -11 30 -46 11 -46 -26 0 -16 106 -11 120 6 14 17 5 65 -12 65 -7 0
-4 6 7 13 10 8 15 19 11 25 -9 16 -89 15 -104 0z"/>
<path d="M1597 3610 c-38 -30 -43 -57 -16 -86 18 -19 32 -24 75 -24 33 0 54 5
57 13 4 10 7 10 18 0 21 -21 77 -16 89 7 11 21 11 21 29 -2 23 -28 81 -30 110
-4 19 18 21 18 48 -3 22 -18 35 -21 68 -15 22 3 45 10 52 16 7 6 14 5 18 -2 8
-13 82 -13 90 0 4 6 12 4 21 -5 21 -21 104 -21 104 0 0 9 -9 15 -25 15 -14 0
-25 2 -25 4 0 2 13 18 29 35 45 48 33 61 -56 61 l-75 0 4 -37 c2 -24 -2 -38
-11 -41 -11 -4 -13 5 -9 42 4 36 2 46 -9 46 -27 0 -53 -21 -54 -43 0 -15 -2
-17 -6 -7 -19 51 -71 65 -114 31 -24 -19 -25 -19 -48 0 -30 24 -62 24 -94 -1
-25 -20 -25 -20 -38 0 -22 32 -45 11 -31 -29 7 -20 7 -33 1 -37 -16 -9 -24 4
-24 39 0 34 -3 37 -35 37 -14 0 -20 -7 -20 -22 -1 -22 -1 -22 -21 5 -25 33
-65 36 -102 7z m73 -40 c0 -15 -7 -20 -27 -20 l-28 0 25 20 c31 24 30 24 30 0z
m275 0 c10 -17 -14 -38 -35 -33 -25 7 -25 12 -2 29 21 16 29 17 37 4z m143 -2
c-3 -7 -15 -15 -28 -16 -21 -3 -22 -2 -11 12 16 19 44 21 39 4z"/>
<path d="M2908 3622 c-19 -4 -24 -27 -8 -37 15 -9 12 -41 -5 -55 -8 -7 -15
-16 -15 -20 0 -15 32 -20 47 -9 10 9 17 9 25 1 15 -15 55 -16 63 -2 3 6 -3 22
-14 36 -25 32 -26 47 -6 64 9 7 13 16 9 19 -6 7 -69 9 -96 3z"/>
<path d="M3045 3622 c-6 -4 -10 -34 -9 -67 1 -59 1 -60 30 -60 22 0 30 5 32
23 2 13 10 22 21 22 9 0 22 5 29 12 9 9 12 5 12 -19 0 -23 6 -33 21 -38 29
-10 86 3 93 20 7 19 -13 30 -27 16 -22 -22 -28 -10 -26 42 3 47 1 52 -19 55
-13 2 -29 -2 -37 -8 -10 -8 -19 -8 -34 -1 -23 13 -71 14 -86 3z"/>
<path d="M3706 3622 c-2 -4 -6 -34 -7 -67 -3 -54 -1 -60 17 -60 14 0 18 6 16
24 -2 18 2 22 14 17 8 -3 20 -6 25 -6 5 0 9 -7 9 -15 0 -10 10 -15 30 -15 l31
0 -3 62 c-3 67 -16 81 -45 48 l-20 -20 -18 20 c-19 20 -40 26 -49 12z"/>
<path d="M3869 3618 c-12 -10 -15 -26 -11 -61 3 -40 8 -50 29 -58 30 -11 72
11 80 42 3 10 9 19 13 19 17 0 70 -23 70 -30 0 -19 -24 -22 -36 -6 -14 19 -34
14 -34 -9 0 -16 51 -29 80 -20 32 10 45 43 25 65 -11 12 -13 20 -6 25 6 3 11
13 11 21 0 18 -80 20 -99 2 -11 -10 -14 -10 -18 0 -3 6 -13 12 -24 12 -16 0
-19 -6 -17 -37 2 -21 -1 -40 -7 -43 -6 -3 -11 15 -13 43 -3 49 -15 58 -43 35z
m186 -28 c3 -5 2 -10 -4 -10 -5 0 -13 5 -16 10 -3 6 -2 10 4 10 5 0 13 -4 16
-10z"/>
<path d="M2758 3560 c-3 -68 4 -75 73 -68 38 3 46 21 12 26 -28 4 -29 9 -3 30
11 10 21 28 22 42 3 23 0 25 -49 28 l-51 3 -4 -61z"/>
<path d="M3574 3564 c-8 -66 0 -76 60 -72 44 3 64 28 22 28 -17 0 -26 5 -26
16 0 8 4 13 9 9 12 -7 49 46 44 63 -3 7 -23 12 -53 12 l-49 0 -7 -56z"/>
<path d="M1397 3341 c-3 -25 -5 -107 -4 -181 l2 -135 55 -3 c30 -2 58 -9 62
-15 10 -15 10 -392 1 -810 l-6 -317 -62 0 -62 0 -6 -107 c-4 -58 -7 -137 -7
-174 l0 -67 38 -6 c20 -3 258 -8 527 -11 391 -4 493 -3 505 7 9 7 61 67 117
133 55 66 110 129 122 139 l21 19 -2 -309 -3 -309 -65 -5 -65 -5 -3 -184 c-2
-135 1 -187 9 -192 21 -13 639 -11 655 2 11 9 14 50 14 190 0 203 9 186 -95
191 l-50 3 0 275 c1 530 6 824 16 842 8 15 22 18 87 18 86 0 96 -4 105 -41 l7
-26 179 -6 c99 -4 187 -4 195 -1 14 5 16 36 16 225 l0 219 -317 2 c-492 3
-1255 -2 -1265 -8 -11 -7 -8 -423 4 -430 12 -8 356 -6 368 1 6 3 10 17 10 30
0 29 16 35 93 35 100 0 107 -4 107 -61 l0 -49 -184 0 c-102 0 -187 -4 -190 -9
-3 -5 -9 -62 -12 -127 l-6 -119 -41 -42 -41 -43 -158 0 -158 0 -2 223 c-2 122
-2 281 -1 352 1 72 2 226 2 343 l1 212 167 -2 167 -3 41 -51 c38 -46 42 -56
44 -115 1 -35 4 -72 7 -81 6 -21 45 -25 234 -18 l145 5 3 146 3 146 -32 39
c-17 21 -49 61 -72 88 -23 27 -71 85 -107 130 -52 63 -73 82 -100 88 -19 4
-254 6 -522 6 l-487 -2 -4 -45z"/>
<path d="M4158 2308 c28 -28 14 -40 -40 -36 -49 3 -53 1 -56 -19 -2 -13 0 -23
5 -24 4 0 36 -2 71 -4 l62 -5 0 50 c0 48 -1 50 -27 50 -21 0 -24 -3 -15 -12z"/>
<path d="M1005 2291 c-3 -6 -24 -8 -50 -4 l-45 6 0 -45 c0 -50 21 -78 59 -78
32 0 71 43 71 78 0 32 -24 61 -35 43z m-17 -47 c27 -8 28 -21 2 -29 -27 -9
-60 3 -60 21 0 15 20 18 58 8z"/>
<path d="M4082 2174 c-42 -29 -20 -105 34 -118 69 -18 111 86 50 126 -19 13
-60 9 -84 -8z m68 -45 c0 -26 -17 -33 -25 -9 -3 11 -11 20 -17 20 -6 0 -6 6 2
15 15 19 40 3 40 -26z"/>
<path d="M910 2111 c0 -5 7 -14 15 -21 21 -18 19 -37 -6 -43 -14 -4 -19 -12
-17 -24 5 -22 34 -20 94 7 32 14 42 23 38 34 -3 9 -13 16 -20 16 -8 0 -32 9
-54 20 -44 22 -50 24 -50 11z"/>
<path d="M4074 2014 c-20 -19 -24 -31 -20 -52 14 -57 78 -80 116 -42 29 29 26
74 -6 99 -35 28 -59 26 -90 -5z m64 -37 c4 -31 -5 -35 -24 -9 -19 24 -17 44 4
40 10 -2 18 -14 20 -31z"/>
<path d="M967 1939 c-32 -17 -57 -35 -55 -42 6 -18 93 -58 111 -51 30 11 20
34 -14 32 -44 -4 -47 18 -5 33 38 14 39 15 28 41 -6 14 -14 13 -65 -13z"/>
<path d="M4047 1873 c-15 -14 -6 -44 15 -52 21 -8 21 -8 -6 -15 -21 -5 -27
-12 -24 -28 2 -17 11 -22 43 -25 22 -2 49 -5 60 -6 28 -3 33 38 6 46 -12 3
-21 11 -21 17 0 7 8 10 20 7 14 -3 24 1 31 15 13 24 7 30 -28 34 -16 2 -42 5
-59 9 -17 3 -33 2 -37 -2z"/>
<path d="M1019 1806 c-2 -3 -24 -6 -49 -9 -36 -3 -45 -8 -45 -23 0 -12 7 -19
18 -18 9 0 37 1 62 2 41 2 45 4 45 27 0 22 -18 34 -31 21z"/>
<path d="M4017 1713 c-14 -13 -7 -71 11 -91 29 -35 67 -38 96 -8 30 29 33 52
10 84 -18 25 -38 20 -29 -8 7 -24 -28 -62 -50 -54 -18 7 -20 35 -4 51 6 6 8
16 5 22 -8 12 -29 15 -39 4z"/>
<path d="M1030 1695 c-7 -8 -28 -15 -48 -15 l-35 0 6 -40 c7 -53 22 -70 62
-70 42 0 65 27 65 76 0 55 -25 79 -50 49z m13 -52 c12 -11 -14 -33 -39 -33
-31 0 -32 27 -1 33 12 2 25 5 28 6 3 0 9 -2 12 -6z"/>
<path d="M3980 1535 c-15 -46 -5 -75 26 -75 16 0 28 8 36 25 6 14 17 25 25 25
19 0 16 -18 -6 -32 -15 -9 -17 -15 -9 -25 19 -24 35 -14 46 29 14 56 1 82 -39
76 -17 -3 -32 -1 -35 4 -12 19 -33 6 -44 -27z"/>
<path d="M1155 1351 c-3 -5 -1 -12 5 -16 18 -11 10 -25 -25 -42 -36 -17 -43
-31 -24 -50 8 -8 21 -4 48 14 30 21 37 22 39 9 4 -18 27 -21 37 -6 4 6 -5 31
-20 55 -25 43 -47 56 -60 36z"/>
<path d="M3917 1345 c-4 -8 -2 -17 3 -20 17 -10 11 -25 -9 -25 -17 0 -31 -18
-31 -41 0 -5 17 -6 40 -3 26 4 45 2 55 -6 8 -7 22 -10 30 -6 24 9 18 35 -10
46 -14 5 -34 23 -43 40 -19 33 -27 37 -35 15z"/>
<path d="M1207 1186 c-25 -23 -35 -39 -31 -50 7 -19 25 -21 42 -4 20 20 26 -1
7 -22 -17 -19 -17 -22 -3 -36 14 -14 20 -12 61 18 51 37 56 61 14 66 -28 3
-36 17 -14 25 9 3 9 7 -2 20 -19 24 -31 21 -74 -17z"/>
<path d="M3831 1194 c-33 -27 -43 -74 -17 -74 8 0 28 -12 45 -26 26 -21 34
-24 46 -14 18 15 20 40 3 41 -7 1 0 4 17 8 34 7 48 41 17 41 -11 0 -27 11 -36
25 -21 32 -37 31 -75 -1z"/>
<path d="M3731 1066 c-16 -19 46 -131 64 -116 7 6 11 20 8 30 -4 16 0 20 20
20 29 0 58 37 35 45 -81 27 -117 33 -127 21z"/>
<path d="M1300 1050 c-26 -26 -25 -52 3 -78 33 -31 80 -29 106 4 27 34 26 40
-4 69 -30 31 -77 33 -105 5z m68 -36 c25 -7 30 -32 7 -40 -18 -7 -45 12 -45
32 0 16 5 16 38 8z"/>
<path d="M1427 929 c-27 -29 -36 -44 -28 -52 7 -7 14 -7 23 1 9 7 18 7 32 -4
16 -11 17 -16 5 -30 -11 -14 -10 -18 6 -31 18 -13 23 -11 57 29 43 49 43 63 2
63 -25 1 -29 4 -29 30 0 43 -24 41 -68 -6z"/>
<path d="M3616 939 c-30 -23 -35 -59 -8 -59 9 0 26 -14 37 -30 11 -16 25 -30
31 -30 16 0 74 67 74 85 0 50 -86 72 -134 34z m83 -49 c3 -25 3 -25 -18 -6
-26 23 -27 39 -3 34 9 -2 19 -14 21 -28z"/>
<path d="M3525 860 c-4 -6 -1 -18 7 -27 11 -14 9 -15 -20 -11 -51 7 -61 -15
-23 -54 17 -17 31 -38 31 -45 0 -7 6 -13 14 -13 19 0 33 23 18 28 -27 9 -9 23
25 20 47 -4 51 12 13 53 -16 18 -30 39 -30 46 0 16 -26 17 -35 3z"/>
<path d="M1584 817 c-9 -17 -23 -37 -31 -45 -10 -11 -11 -17 -2 -28 15 -19 35
-18 43 2 5 13 9 14 21 4 7 -6 24 -10 37 -8 32 4 36 43 8 73 -35 37 -58 38 -76
2z m56 -27 c0 -5 -4 -10 -10 -10 -5 0 -10 5 -10 10 0 6 5 10 10 10 6 0 10 -4
10 -10z"/>
<path d="M3358 743 c-38 -43 -29 -95 18 -113 49 -19 101 32 88 86 -11 44 -77
60 -106 27z m76 -51 c-12 -19 -44 -29 -44 -13 0 5 5 22 10 37 10 26 12 26 28
11 13 -14 14 -21 6 -35z"/>
<path d="M1722 738 c-7 -7 -12 -20 -12 -29 0 -9 -9 -19 -20 -22 -11 -3 -20
-10 -20 -16 0 -12 69 -61 86 -61 18 0 47 38 41 54 -4 9 1 20 11 26 15 9 14 13
-13 35 -33 27 -55 31 -73 13z m18 -74 c0 -8 -4 -14 -10 -14 -5 0 -10 9 -10 21
0 11 5 17 10 14 6 -3 10 -13 10 -21z"/>
<path d="M3231 671 c-34 -32 -39 -56 -15 -89 29 -42 114 -23 114 25 0 25 -1
25 -18 10 -23 -21 -56 -22 -72 -2 -17 20 -6 43 22 47 13 2 23 9 23 17 0 25
-21 22 -54 -8z"/>
<path d="M1863 645 c-30 -21 -34 -51 -12 -79 25 -32 52 -40 81 -25 30 16 38
28 38 61 0 52 -59 76 -107 43z m83 -46 c9 -16 -20 -41 -39 -33 -27 10 -21 44
7 44 14 0 28 -5 32 -11z"/>
<path d="M3095 618 c-22 -11 -41 -22 -43 -23 -1 -1 9 -27 23 -57 l25 -56 55
21 c59 21 64 27 40 47 -13 11 -18 10 -29 -6 -8 -10 -18 -15 -22 -11 -5 4 -3
12 5 16 19 12 20 58 2 75 -14 12 -21 12 -56 -6z"/>
<path d="M2019 598 c0 -2 -3 -16 -5 -33 -3 -16 -12 -37 -20 -46 -19 -21 -18
-29 5 -29 10 0 22 8 26 18 5 14 9 11 21 -16 14 -34 32 -38 45 -11 30 62 38 89
27 95 -6 4 -17 -1 -24 -11 -13 -17 -14 -16 -23 9 -7 16 -18 26 -31 26 -11 0
-20 -1 -21 -2z"/>
<path d="M2958 553 c-29 -12 -38 -21 -38 -39 0 -24 5 -27 50 -28 16 -1 26 -8
28 -20 3 -15 0 -17 -14 -12 -32 13 -38 12 -42 -8 -4 -17 0 -18 33 -13 40 6 75
31 75 53 0 7 -10 21 -23 31 -12 10 -21 26 -19 36 4 20 -1 20 -50 0z m27 -23
c-3 -5 -10 -10 -16 -10 -5 0 -9 5 -9 10 0 6 7 10 16 10 8 0 12 -4 9 -10z"/>
</g>
</svg>
